<svg id="Layer_1" data-name="Layer 1" xmlns="http://www.w3.org/2000/svg" xmlns:xlink="http://www.w3.org/1999/xlink" viewBox="0 0 3486 4065"><defs><style>.cls-1{opacity:0.65;}.cls-2{fill:url(#linear-gradient);}.cls-3{fill:url(#linear-gradient-2);}.cls-4{fill:url(#linear-gradient-3);}.cls-5{fill:url(#linear-gradient-4);}.cls-6{fill:url(#linear-gradient-5);}.cls-7{fill:url(#linear-gradient-6);}</style><linearGradient id="linear-gradient" x1="838.41" y1="3845.52" x2="2918.05" y2="243.48" gradientUnits="userSpaceOnUse"><stop offset="0" stop-color="#3fa9f5"/><stop offset="0.08" stop-color="#3fa9f5" stop-opacity="0"/><stop offset="0.15" stop-color="#3fa9f5"/><stop offset="0.17" stop-color="#3fa9f5" stop-opacity="0.94"/><stop offset="0.25" stop-color="#3fa9f5" stop-opacity="0.79"/><stop offset="0.32" stop-color="#3fa9f5" stop-opacity="0.69"/><stop offset="0.39" stop-color="#3fa9f5" stop-opacity="0.62"/><stop offset="0.44" stop-color="#3fa9f5" stop-opacity="0.6"/><stop offset="0.78" stop-color="#0071bc"/><stop offset="1" stop-color="#0071bc" stop-opacity="0"/></linearGradient><linearGradient id="linear-gradient-2" x1="823.21" y1="3807.74" x2="2902.85" y2="205.71" xlink:href="#linear-gradient"/><linearGradient id="linear-gradient-3" x1="808.01" y1="3769.97" x2="2887.65" y2="167.93" xlink:href="#linear-gradient"/><linearGradient id="linear-gradient-4" x1="792.81" y1="3732.19" x2="2872.45" y2="130.16" xlink:href="#linear-gradient"/><linearGradient id="linear-gradient-5" x1="777.61" y1="3694.42" x2="2857.25" y2="92.38" xlink:href="#linear-gradient"/><linearGradient id="linear-gradient-6" x1="762.41" y1="3656.64" x2="2842.05" y2="54.61" xlink:href="#linear-gradient"/></defs><title>comparison_swirl</title><g class="cls-1"><path class="cls-2" d="M3329.87,498.13C3300.23,634.65,3176,735,3037.82,745.28a353.94,353.94,0,0,1-190.7-40.22c-62.38-33.08-105.94-85.35-147.38-141.13-41.63-56-83.9-109.49-145.1-145.27-59.68-34.89-127.52-53-195.19-64.72-75-12.95-151.3-19.42-227.06-26.44q-127.64-11.83-255.62-19.37-255.92-15.07-512.46-13c-81.51.67-163.25,1.57-244.63,6.55-73.06,4.47-146.63,13.52-216.32,36.82C778.24,380.34,686.9,471.07,626.79,586.58c-63.37,121.76-81.7,258.57-66,394.16,17.76,153.15,73.17,300.63,139.86,438.74,59.43,123.08,131.44,240,213.79,349.09,166,219.84,373.72,407.68,607.77,552.73,258.24,160,547.12,268.43,845.14,325.79,146.08,28.11,296.32,46.71,445.24,47.41,132.15.62,272.8-23.92,361.53-131.13,167.42-202.3,118-508.18-14.63-714.36-76.21-118.47-184.22-209.5-308.8-274-128.75-66.62-269.25-106.51-409.09-142.32-318.75-81.63-651-161.62-982-118.59-142.31,18.5-283.24,60.6-406.92,134.49-110.55,66-201.73,157.32-270.59,265.88-131.91,208-181.56,463-137.31,705.41C692.43,2681,844.53,2914.7,1042,3088.25c218.2,191.75,492.25,307,775.34,362.78,149.63,29.48,301.94,42.71,454.33,44.44,139.53,1.58,283.07-3.77,418.58,35.18,63.33,18.2,127.16,46.74,177.08,90.56,46.73,41,88.31,103.07,82,168-7.07,72.47-91.58,100.91-152,116.64-75.62,19.7-153.46,30.84-231.48,34.65-318.25,15.57-630.14-87.73-920.09-208.64-288.26-120.2-568.64-263.44-871.58-344.61-74.87-20.06-150.84-36.19-227.64-46.81q-57.64-8-115.76-11.63c-34.94-2.16-70.87-4.82-105.8-1.2-26.37,2.73-54.78,9.85-74,29.27-14.91,15-28.2,38-32.21,58.91-12.84,66.84,66.6,116.37,112.69,147.59a2103.68,2103.68,0,0,0,400.16,211.8c3.29,1.31,15.82-25.65,15-26a2104.51,2104.51,0,0,1-408.26-217.31c-28.68-19.62-57.52-39.47-79.48-66.84-9.56-11.92-17.9-25.17-22.54-39.82a71.33,71.33,0,0,1-3.54-24.08c.43-11.59,1.36-16.21,7.64-21.91,22.37-20.31,55.36-25.35,84.44-26.74,35.54-1.69,71.65.82,107.09,3.39,307.11,22.34,596.93,139.22,876.19,261.25,286.14,125,571.46,259.34,879.91,319.9,148.91,29.23,302.2,40.53,453.18,21.65,69.1-8.64,142.09-20.64,206.32-48.67,50.61-22.08,89.64-59.93,109.11-112.15,20.85-55.93-.78-115.63-35.4-161-40.2-52.72-98.91-88.31-159.66-112.84-127.55-51.51-268.9-53-404.41-54-148.62-1.05-296.29-7.25-443.31-30.51-146.33-23.15-290.69-60.74-428.14-116.36-251-101.56-476.62-266.15-634.5-487.76-149.6-210-229.17-465.09-201.48-723.3,13.55-126.38,50.54-252.68,114.7-362.85,67.2-115.4,164.71-210.72,279.63-278.28,269.49-158.42,599-163.19,899.68-117.27,161.91,24.72,321.34,63.72,479.9,104.26,137,35,274.62,73.76,401.39,137.64,124.49,62.74,233.6,151,311.57,267.41,74.75,111.55,121.32,244.23,127.76,378.68,6.3,131.44-26.21,275.29-139.64,354.68-115.59,80.9-268,76.57-402.45,68-298.72-19-594.9-87-870.09-205.24-259.35-111.45-498.4-268.22-700.84-465.19C958.24,1806,798.71,1582.7,689.12,1336.21c-63.15-142-113.54-294.13-118.38-450.73C566.42,745.67,600.63,598,695,491c98.68-111.85,240.77-150.44,384.72-161.62,161.37-12.53,325.05-10.24,486.75-7q251,5.07,501.25,26.62c77.88,6.71,156,13.57,233.44,24.22,67.57,9.29,135.55,22.87,198.15,50.77,64.22,28.63,114.14,72.75,156.93,128,41.58,53.64,78.64,112,134.09,152.8,103.38,76,247.43,89.64,361.39,29.4,97.64-51.62,170-153.35,193.3-260.72.33-1.53-6.28,7.27-6.84,8.15-3.07,4.91-7.06,10.73-8.32,16.5Z"/><path class="cls-3" d="M3314.67,460.35C3285,596.87,3160.76,697.27,3022.62,707.5a353.94,353.94,0,0,1-190.7-40.22c-62.38-33.08-105.94-85.35-147.38-141.13-41.63-56-83.9-109.49-145.1-145.27-59.68-34.89-127.52-53-195.19-64.72-75-12.95-151.3-19.42-227.06-26.44q-127.64-11.83-255.62-19.37-255.92-15.07-512.46-13c-81.51.67-163.25,1.57-244.63,6.55-73.06,4.47-146.63,13.52-216.32,36.82C763,342.57,671.7,433.29,611.59,548.8c-63.37,121.76-81.7,258.57-66,394.16,17.76,153.15,73.17,300.63,139.86,438.74,59.43,123.08,131.44,240,213.79,349.09,166,219.84,373.72,407.68,607.77,552.73,258.24,160,547.12,268.43,845.14,325.79,146.08,28.11,296.32,46.71,445.24,47.41,132.15.62,272.8-23.92,361.53-131.13,167.42-202.3,118-508.18-14.63-714.36-76.21-118.47-184.22-209.5-308.8-274-128.75-66.62-269.25-106.51-409.09-142.32-318.75-81.63-651-161.62-982-118.59-142.31,18.5-283.24,60.6-406.92,134.49-110.55,66-201.73,157.32-270.59,265.88-131.91,208-181.56,463-137.31,705.41,47.67,261.08,199.77,494.79,397.26,668.35,218.2,191.75,492.25,307,775.34,362.78,149.63,29.48,301.94,42.71,454.33,44.44,139.53,1.58,283.07-3.77,418.58,35.18,63.33,18.2,127.16,46.74,177.08,90.56,46.73,41,88.31,103.07,82,168-7.07,72.47-91.58,100.91-152,116.64-75.62,19.7-153.46,30.84-231.48,34.65-318.25,15.57-630.14-87.73-920.09-208.64C1342.34,3573.88,1062,3430.64,759,3349.47c-74.87-20.06-150.84-36.19-227.64-46.81q-57.64-8-115.76-11.63c-34.94-2.16-70.87-4.82-105.8-1.2-26.37,2.73-54.78,9.85-74,29.27-14.91,15-28.2,38-32.21,58.91-12.84,66.84,66.6,116.37,112.69,147.59a2103.68,2103.68,0,0,0,400.16,211.8c3.29,1.31,15.82-25.65,15-26A2104.51,2104.51,0,0,1,323.16,3494.1c-28.68-19.62-57.52-39.47-79.48-66.84-9.56-11.92-17.9-25.17-22.54-39.82a71.33,71.33,0,0,1-3.54-24.08c.43-11.59,1.36-16.21,7.64-21.91,22.37-20.31,55.36-25.35,84.44-26.74,35.54-1.69,71.65.82,107.09,3.39,307.11,22.34,596.93,139.22,876.19,261.25,286.14,125,571.46,259.34,879.91,319.9,148.91,29.23,302.2,40.53,453.18,21.65,69.1-8.64,142.09-20.64,206.32-48.67,50.61-22.08,89.64-59.93,109.11-112.15,20.85-55.93-.78-115.63-35.4-161-40.2-52.72-98.91-88.31-159.66-112.84-127.55-51.51-268.9-53-404.41-54-148.62-1.05-296.29-7.25-443.31-30.51-146.33-23.15-290.69-60.74-428.14-116.36-251-101.56-476.62-266.15-634.5-487.76-149.6-210-229.17-465.09-201.48-723.3,13.55-126.38,50.54-252.68,114.7-362.85,67.2-115.4,164.71-210.72,279.63-278.28,269.49-158.42,599-163.19,899.68-117.27,161.91,24.72,321.34,63.72,479.9,104.26,137,35,274.62,73.76,401.39,137.64,124.49,62.74,233.6,151,311.57,267.41,74.75,111.55,121.32,244.23,127.76,378.68,6.3,131.44-26.21,275.29-139.64,354.68-115.59,80.9-268,76.57-402.45,68-298.72-19-594.9-87-870.09-205.24-259.35-111.45-498.4-268.22-700.84-465.19C943,1768.22,783.51,1544.92,673.92,1298.43c-63.15-142-113.54-294.13-118.38-450.73-4.32-139.81,29.89-287.49,124.28-394.47C778.5,341.39,920.59,302.8,1064.54,291.62c161.37-12.53,325.05-10.24,486.75-7q251,5.07,501.25,26.62c77.88,6.71,156,13.57,233.44,24.22,67.57,9.29,135.55,22.87,198.15,50.77,64.22,28.63,114.14,72.75,156.93,128,41.58,53.64,78.64,112,134.09,152.8,103.38,76,247.43,89.64,361.39,29.4,97.64-51.62,170-153.35,193.3-260.72.33-1.53-6.28,7.27-6.84,8.15-3.07,4.91-7.06,10.73-8.32,16.5Z"/><path class="cls-4" d="M3299.47,422.58c-29.64,136.52-153.91,236.92-292.05,247.15a353.94,353.94,0,0,1-190.7-40.22c-62.38-33.08-105.94-85.35-147.38-141.13-41.63-56-83.9-109.49-145.1-145.27-59.68-34.89-127.52-53-195.19-64.72C2254,265.45,2177.75,259,2102,252q-127.64-11.83-255.62-19.37-255.92-15.07-512.46-13c-81.51.67-163.25,1.57-244.63,6.55C1016.22,230.62,942.65,239.66,873,263,747.84,304.8,656.5,395.52,596.39,511c-63.37,121.76-81.7,258.57-66,394.16,17.76,153.15,73.17,300.63,139.86,438.74,59.43,123.08,131.44,240,213.79,349.09,166,219.84,373.72,407.68,607.77,552.73,258.24,160,547.12,268.43,845.14,325.79,146.08,28.11,296.32,46.71,445.24,47.41,132.15.62,272.8-23.92,361.53-131.13,167.42-202.3,118-508.18-14.63-714.36-76.21-118.47-184.22-209.5-308.8-274-128.75-66.62-269.25-106.51-409.09-142.32-318.75-81.63-651-161.62-982-118.59-142.31,18.5-283.24,60.6-406.92,134.49-110.55,66-201.73,157.32-270.59,265.88-131.91,208-181.56,463-137.31,705.41,47.67,261.08,199.77,494.79,397.26,668.35,218.2,191.75,492.25,307,775.34,362.78,149.63,29.48,301.94,42.71,454.33,44.44,139.53,1.58,283.07-3.77,418.58,35.18,63.33,18.2,127.16,46.74,177.08,90.56,46.73,41,88.31,103.07,82,168-7.07,72.47-91.58,100.91-152,116.64-75.62,19.7-153.46,30.84-231.48,34.65-318.25,15.57-630.14-87.73-920.09-208.64-288.26-120.2-568.64-263.44-871.58-344.61-74.87-20.06-150.84-36.19-227.64-46.81q-57.64-8-115.76-11.63c-34.94-2.16-70.87-4.82-105.8-1.2-26.37,2.73-54.78,9.85-74,29.27-14.91,15-28.2,38-32.21,58.91-12.84,66.84,66.6,116.37,112.69,147.59a2103.68,2103.68,0,0,0,400.16,211.8c3.29,1.31,15.82-25.65,15-26A2104.51,2104.51,0,0,1,308,3456.32c-28.68-19.62-57.52-39.47-79.48-66.84-9.56-11.92-17.9-25.17-22.54-39.82a71.33,71.33,0,0,1-3.54-24.08c.43-11.59,1.36-16.21,7.64-21.91,22.37-20.31,55.36-25.35,84.44-26.74,35.54-1.69,71.65.82,107.09,3.39,307.11,22.34,596.93,139.22,876.19,261.25,286.14,125,571.46,259.34,879.91,319.9,148.91,29.23,302.2,40.53,453.18,21.65,69.1-8.64,142.09-20.64,206.32-48.67,50.61-22.08,89.64-59.93,109.11-112.15,20.85-55.93-.78-115.63-35.4-161-40.2-52.72-98.91-88.31-159.66-112.84-127.55-51.51-268.9-53-404.41-54-148.62-1.05-296.29-7.25-443.31-30.51-146.33-23.15-290.69-60.74-428.14-116.36-251-101.56-476.62-266.15-634.5-487.76-149.6-210-229.17-465.09-201.48-723.3,13.55-126.38,50.54-252.68,114.7-362.85,67.2-115.4,164.71-210.72,279.63-278.28,269.49-158.42,599-163.19,899.68-117.27,161.91,24.72,321.34,63.72,479.9,104.26,137,35,274.62,73.76,401.39,137.64,124.49,62.74,233.6,151,311.57,267.41C3181,1899,3227.58,2031.69,3234,2166.14c6.3,131.44-26.21,275.29-139.64,354.68-115.59,80.9-268,76.57-402.45,68-298.72-19-594.9-87-870.09-205.24-259.35-111.45-498.4-268.22-700.84-465.19-193.15-187.94-352.68-411.24-462.27-657.73-63.15-142-113.54-294.13-118.38-450.73C536,670.12,570.23,522.44,664.62,415.47,763.3,303.62,905.39,265,1049.34,253.85c161.37-12.53,325.05-10.24,486.75-7q251,5.07,501.25,26.62c77.88,6.71,156,13.57,233.44,24.22,67.57,9.29,135.55,22.87,198.15,50.77,64.22,28.63,114.14,72.75,156.93,128,41.58,53.64,78.64,112,134.09,152.8,103.38,76,247.43,89.64,361.39,29.4,97.64-51.62,170-153.35,193.3-260.72.33-1.53-6.28,7.27-6.84,8.15-3.07,4.91-7.06,10.73-8.32,16.5Z"/><path class="cls-5" d="M3284.27,384.8C3254.63,521.32,3130.36,621.72,2992.22,632a353.94,353.94,0,0,1-190.7-40.22c-62.38-33.08-105.94-85.35-147.38-141.13-41.63-56-83.9-109.49-145.1-145.27-59.68-34.89-127.52-53-195.19-64.72-75-12.95-151.3-19.42-227.06-26.44q-127.64-11.83-255.62-19.37-255.92-15.07-512.46-13c-81.51.67-163.25,1.57-244.63,6.55-73.06,4.47-146.63,13.52-216.32,36.82C732.64,267,641.3,357.75,581.19,473.25c-63.37,121.76-81.7,258.57-66,394.16C533,1020.56,588.39,1168,655.08,1306.15c59.43,123.08,131.44,240,213.79,349.09,166,219.84,373.72,407.68,607.77,552.73,258.24,160,547.12,268.43,845.14,325.79,146.08,28.11,296.32,46.71,445.24,47.41,132.15.62,272.8-23.92,361.53-131.13,167.42-202.3,118-508.18-14.63-714.36-76.21-118.47-184.22-209.5-308.8-274-128.75-66.62-269.25-106.51-409.09-142.32-318.75-81.63-651-161.62-982-118.59-142.31,18.5-283.24,60.6-406.92,134.49-110.55,66-201.73,157.32-270.59,265.88-131.91,208-181.56,463-137.31,705.41,47.67,261.08,199.77,494.79,397.26,668.35,218.2,191.75,492.25,307,775.34,362.78,149.63,29.48,301.94,42.71,454.33,44.44,139.53,1.58,283.07-3.77,418.58,35.18,63.33,18.2,127.16,46.74,177.08,90.56,46.73,41,88.31,103.07,82,168-7.07,72.47-91.58,100.91-152,116.64-75.62,19.7-153.46,30.84-231.48,34.65-318.25,15.57-630.14-87.73-920.09-208.64-288.26-120.2-568.64-263.44-871.58-344.61-74.87-20.06-150.84-36.19-227.64-46.81q-57.64-8-115.76-11.63c-34.94-2.16-70.87-4.82-105.8-1.2-26.37,2.73-54.78,9.85-74,29.27-14.91,15-28.2,38-32.21,58.91-12.84,66.84,66.6,116.37,112.69,147.59A2103.68,2103.68,0,0,0,686,3661.84c3.29,1.31,15.82-25.65,15-26a2104.51,2104.51,0,0,1-408.26-217.31c-28.68-19.62-57.52-39.47-79.48-66.84-9.56-11.92-17.9-25.17-22.54-39.82a71.33,71.33,0,0,1-3.54-24.08c.43-11.59,1.36-16.21,7.64-21.91,22.37-20.31,55.36-25.35,84.44-26.74,35.54-1.69,71.65.82,107.09,3.39,307.11,22.34,596.93,139.22,876.19,261.25,286.14,125,571.46,259.34,879.91,319.9,148.91,29.23,302.2,40.53,453.18,21.65,69.1-8.64,142.09-20.64,206.32-48.67,50.61-22.08,89.64-59.93,109.11-112.15,20.85-55.93-.78-115.63-35.4-161-40.2-52.72-98.91-88.31-159.66-112.84-127.55-51.51-268.9-53-404.41-54-148.62-1.05-296.29-7.25-443.31-30.51-146.33-23.15-290.69-60.74-428.14-116.36-251-101.56-476.62-266.15-634.5-487.76-149.6-210-229.17-465.09-201.48-723.3,13.55-126.38,50.54-252.68,114.7-362.85,67.2-115.4,164.71-210.72,279.63-278.28,269.49-158.42,599-163.19,899.68-117.27,161.91,24.72,321.34,63.72,479.9,104.26,137,35,274.62,73.76,401.39,137.64,124.49,62.74,233.6,151,311.57,267.41,74.75,111.55,121.32,244.23,127.76,378.68,6.3,131.44-26.21,275.29-139.64,354.68-115.59,80.9-268,76.57-402.45,68-298.72-19-594.9-87-870.09-205.24-259.35-111.45-498.4-268.22-700.84-465.19-193.15-187.94-352.68-411.24-462.27-657.73-63.15-142-113.54-294.13-118.38-450.73C520.82,632.35,555,484.67,649.42,377.69c98.68-111.85,240.77-150.44,384.72-161.62,161.37-12.53,325.05-10.24,486.75-7q251,5.07,501.25,26.62c77.88,6.71,156,13.57,233.44,24.22,67.57,9.29,135.55,22.87,198.15,50.77,64.22,28.63,114.14,72.75,156.93,128,41.58,53.64,78.64,112,134.09,152.8,103.38,76,247.43,89.64,361.39,29.4,97.64-51.62,170-153.35,193.3-260.72.33-1.53-6.28,7.27-6.84,8.15-3.07,4.91-7.06,10.73-8.32,16.5Z"/><path class="cls-6" d="M3269.07,347C3239.43,483.55,3115.16,584,2977,594.18A353.94,353.94,0,0,1,2786.31,554c-62.38-33.08-105.94-85.35-147.38-141.13-41.63-56-83.9-109.49-145.1-145.27-59.68-34.89-127.52-53-195.19-64.72-75-12.95-151.3-19.42-227.06-26.44Q1944,164.57,1816,157,1560.05,142,1303.51,144c-81.51.67-163.25,1.57-244.63,6.55-73.06,4.47-146.63,13.52-216.32,36.82C717.44,229.25,626.1,320,566,435.48,502.62,557.24,484.29,694,500,829.63c17.76,153.15,73.17,300.63,139.86,438.74,59.43,123.08,131.44,240,213.79,349.09,166,219.84,373.72,407.68,607.77,552.73,258.24,160,547.12,268.43,845.14,325.79,146.08,28.11,296.32,46.71,445.24,47.41,132.15.62,272.8-23.92,361.53-131.13,167.42-202.3,118-508.18-14.63-714.36-76.21-118.47-184.22-209.5-308.8-274-128.75-66.62-269.25-106.51-409.09-142.32-318.75-81.63-651-161.62-982-118.59-142.31,18.5-283.24,60.6-406.92,134.49-110.55,66-201.73,157.32-270.59,265.88-131.91,208-181.56,463-137.31,705.41,47.67,261.08,199.77,494.79,397.26,668.35,218.2,191.75,492.25,307,775.34,362.78,149.63,29.48,301.94,42.71,454.33,44.44,139.53,1.58,283.07-3.77,418.58,35.18,63.33,18.2,127.16,46.74,177.08,90.56,46.73,41,88.31,103.07,82,168-7.07,72.47-91.58,100.91-152,116.64-75.62,19.7-153.46,30.84-231.48,34.65C2186.84,3805,1875,3701.67,1585,3580.76c-288.26-120.2-568.64-263.44-871.58-344.61-74.87-20.06-150.84-36.19-227.64-46.81q-57.64-8-115.76-11.63c-34.94-2.16-70.87-4.82-105.8-1.2-26.37,2.73-54.78,9.85-74,29.27-14.91,15-28.2,38-32.21,58.91-12.84,66.84,66.6,116.37,112.69,147.59a2103.68,2103.68,0,0,0,400.16,211.8c3.29,1.31,15.82-25.65,15-26a2104.51,2104.51,0,0,1-408.26-217.31c-28.68-19.62-57.52-39.47-79.48-66.84-9.56-11.92-17.9-25.17-22.54-39.82A71.33,71.33,0,0,1,172,3250c.43-11.59,1.36-16.21,7.64-21.91,22.37-20.31,55.36-25.35,84.44-26.74,35.54-1.69,71.65.82,107.09,3.39C678.28,3227.12,968.1,3344,1247.36,3466c286.14,125,571.46,259.34,879.91,319.9,148.91,29.23,302.2,40.53,453.18,21.65,69.1-8.64,142.09-20.64,206.32-48.67,50.61-22.08,89.64-59.93,109.11-112.15,20.85-55.93-.78-115.63-35.4-161-40.2-52.72-98.91-88.31-159.66-112.84-127.55-51.51-268.9-53-404.41-54-148.62-1.05-296.29-7.25-443.31-30.51-146.33-23.15-290.69-60.74-428.14-116.36-251-101.56-476.62-266.15-634.5-487.76C640.86,2474.29,561.3,2219.21,589,1961c13.55-126.38,50.54-252.68,114.7-362.85,67.2-115.4,164.71-210.72,279.63-278.28,269.49-158.42,599-163.19,899.68-117.27,161.91,24.72,321.34,63.72,479.9,104.26,137,35,274.62,73.76,401.39,137.64,124.49,62.74,233.6,151,311.57,267.41,74.75,111.55,121.32,244.23,127.76,378.68,6.3,131.44-26.21,275.29-139.64,354.68-115.59,80.9-268,76.57-402.45,68-298.72-19-594.9-87-870.09-205.24-259.35-111.45-498.4-268.22-700.84-465.19C897.44,1654.9,737.91,1431.6,628.32,1185.11c-63.15-142-113.54-294.13-118.38-450.73-4.32-139.81,29.89-287.49,124.28-394.47C732.9,228.07,875,189.48,1018.94,178.3c161.37-12.53,325.05-10.24,486.75-7q251,5.07,501.25,26.62c77.88,6.71,156,13.57,233.44,24.22,67.57,9.29,135.55,22.87,198.15,50.77,64.22,28.63,114.14,72.75,156.93,128,41.58,53.64,78.64,112,134.09,152.8,103.38,76,247.43,89.64,361.39,29.4,97.64-51.62,170-153.35,193.3-260.72.33-1.53-6.28,7.27-6.84,8.15-3.07,4.91-7.06,10.73-8.32,16.5Z"/><path class="cls-7" d="M3253.87,309.26C3224.23,445.77,3100,546.18,2961.82,556.4a353.94,353.94,0,0,1-190.7-40.22c-62.38-33.08-105.94-85.35-147.38-141.13-41.63-56-83.9-109.49-145.1-145.27-59.68-34.89-127.52-53-195.19-64.72-75-12.95-151.3-19.42-227.06-26.44q-127.64-11.83-255.62-19.37-255.92-15.07-512.46-13c-81.51.67-163.25,1.57-244.63,6.55-73.06,4.47-146.63,13.52-216.32,36.82C702.24,191.47,610.9,282.2,550.79,397.7c-63.37,121.76-81.7,258.57-66,394.16C502.58,945,558,1092.49,624.68,1230.6c59.43,123.08,131.44,240,213.79,349.09,166,219.84,373.72,407.68,607.77,552.73,258.24,160,547.12,268.43,845.14,325.79,146.08,28.11,296.32,46.71,445.24,47.41,132.15.62,272.8-23.92,361.53-131.13,167.42-202.3,118-508.18-14.63-714.36-76.21-118.47-184.22-209.5-308.8-274-128.75-66.62-269.25-106.51-409.09-142.32-318.75-81.63-651-161.62-982-118.59-142.31,18.5-283.24,60.6-406.92,134.49-110.55,66-201.73,157.32-270.59,265.88-131.91,208-181.56,463-137.31,705.41,47.67,261.08,199.77,494.79,397.26,668.35,218.2,191.75,492.25,307,775.34,362.78,149.63,29.48,301.94,42.71,454.33,44.44,139.53,1.58,283.07-3.77,418.58,35.18,63.33,18.2,127.16,46.74,177.08,90.56,46.73,41,88.31,103.07,82,168-7.07,72.47-91.58,100.91-152,116.64-75.62,19.7-153.46,30.84-231.48,34.65-318.25,15.57-630.14-87.73-920.09-208.64-288.26-120.2-568.64-263.44-871.58-344.61-74.87-20.06-150.84-36.19-227.64-46.81q-57.64-8-115.76-11.63c-34.94-2.16-70.87-4.82-105.8-1.2-26.37,2.73-54.78,9.85-74,29.27-14.91,15-28.2,38-32.21,58.91-12.84,66.84,66.6,116.37,112.69,147.59a2103.68,2103.68,0,0,0,400.16,211.8c3.29,1.31,15.82-25.65,15-26A2104.51,2104.51,0,0,1,262.36,3343c-28.68-19.62-57.52-39.47-79.48-66.84-9.56-11.92-17.9-25.17-22.54-39.82a71.33,71.33,0,0,1-3.54-24.08c.43-11.59,1.36-16.21,7.64-21.91,22.37-20.31,55.36-25.35,84.44-26.74,35.54-1.69,71.65.82,107.09,3.39,307.11,22.34,596.93,139.22,876.19,261.25,286.14,125,571.46,259.34,879.91,319.9,148.91,29.23,302.2,40.53,453.18,21.65,69.1-8.64,142.09-20.64,206.32-48.67,50.61-22.08,89.64-59.93,109.11-112.15,20.85-55.93-.78-115.63-35.4-161-40.2-52.72-98.91-88.31-159.66-112.84-127.55-51.51-268.9-53-404.41-54-148.62-1.05-296.29-7.25-443.31-30.51-146.33-23.15-290.69-60.74-428.14-116.36-251-101.56-476.62-266.15-634.5-487.76-149.6-210-229.17-465.09-201.48-723.3,13.55-126.38,50.54-252.68,114.7-362.85,67.2-115.4,164.71-210.72,279.63-278.28,269.49-158.42,599-163.19,899.68-117.27,161.91,24.72,321.34,63.72,479.9,104.26,137,35,274.62,73.76,401.39,137.64,124.49,62.74,233.6,151,311.57,267.41,74.75,111.55,121.32,244.23,127.76,378.68,6.3,131.44-26.21,275.29-139.64,354.68-115.59,80.9-268,76.57-402.45,68-298.72-19-594.9-87-870.09-205.24-259.35-111.45-498.4-268.22-700.84-465.19-193.15-187.94-352.68-411.24-462.27-657.73C550,1005.3,499.58,853.2,494.74,696.61,490.42,556.8,524.63,409.12,619,302.14,717.7,190.29,859.79,151.7,1003.74,140.52c161.37-12.53,325.05-10.24,486.75-7q251,5.07,501.25,26.62c77.88,6.71,156,13.57,233.44,24.22,67.57,9.29,135.55,22.87,198.15,50.77,64.22,28.63,114.14,72.75,156.93,128,41.58,53.64,78.64,112,134.09,152.8,103.38,76,247.43,89.64,361.39,29.4,97.64-51.62,170-153.35,193.3-260.72.33-1.53-6.28,7.27-6.84,8.15-3.07,4.91-7.06,10.73-8.32,16.5Z"/></g></svg>